<?xml version="1.0" standalone="no"?>
<!DOCTYPE svg PUBLIC "-//W3C//DTD SVG 20010904//EN"
 "http://www.w3.org/TR/2001/REC-SVG-20010904/DTD/svg10.dtd">
<svg version="1.0" xmlns="http://www.w3.org/2000/svg"
 width="700.000000pt" height="537.000000pt" viewBox="0 0 700.000000 537.000000"
 preserveAspectRatio="xMidYMid meet">

<g transform="translate(0.000000,537.000000) scale(0.100000,-0.100000)"
fill="#0E223B" stroke="none">
<path d="M1915 4820 c-351 -36 -657 -181 -910 -435 -179 -178 -295 -362 -370
-589 -72 -217 -69 -164 -72 -1060 -4 -768 -3 -814 16 -925 92 -543 491 -1006
1011 -1175 233 -76 94 -71 1920 -71 l1635 0 102 23 c598 132 1038 574 1176
1179 22 97 22 107 22 928 l0 830 -28 120 c-143 604 -597 1038 -1214 1162 -81
16 -205 17 -1648 19 -858 1 -1596 -2 -1640 -6z m35 -1295 l0 -115 -103 0 c-67
0 -107 -4 -115 -12 -8 -8 -12 -54 -12 -140 l0 -128 115 0 116 0 -3 -97 -3 -98
-112 -3 -113 -3 0 -464 0 -465 -190 0 -190 0 0 465 0 465 -130 0 -130 0 0 100
0 100 129 0 128 0 5 188 c6 207 16 252 70 297 l30 25 254 0 254 0 0 -115z
m1628 -153 l2 -242 105 0 105 0 0 -100 0 -100 -105 0 -105 0 0 -359 0 -360 22
-15 c16 -11 46 -16 105 -16 l83 0 0 -90 0 -90 -163 0 c-211 0 -249 10 -328 89
-87 88 -89 97 -89 502 l0 338 -97 3 -98 3 -3 98 -3 97 101 0 100 0 0 154 0
153 59 6 c77 7 161 51 232 123 29 30 58 53 64 51 6 -2 11 -91 13 -245z m-840
-273 c70 -34 115 -85 143 -159 17 -45 19 -80 19 -368 0 -384 -2 -396 -89 -483
-79 -78 -117 -89 -321 -89 -204 0 -242 11 -321 89 -87 87 -89 99 -89 483 0
288 2 323 19 368 28 74 73 125 143 159 l61 31 187 0 187 0 61 -31z m1868 4
c60 -32 127 -112 147 -173 14 -42 17 -92 17 -246 l0 -194 -235 0 -235 0 0
-132 c0 -146 8 -168 61 -168 48 0 59 22 59 116 l0 84 176 0 177 0 -5 -82 c-6
-108 -34 -174 -100 -233 -71 -64 -117 -75 -314 -75 -202 0 -245 13 -321 93
-83 87 -84 99 -81 494 3 326 4 339 25 379 36 67 70 101 136 134 l62 31 195 -3
c178 -3 198 -5 236 -25z m714 -128 c30 -85 57 -155 60 -155 3 0 29 70 59 155
l53 155 179 0 c99 0 179 -4 179 -8 0 -4 -43 -129 -95 -277 -52 -148 -95 -273
-95 -278 0 -4 43 -130 95 -279 52 -148 95 -274 95 -279 0 -5 -79 -9 -178 -9
l-178 0 -54 160 c-30 88 -58 160 -61 160 -3 0 -30 -72 -60 -160 l-54 -160
-183 0 c-101 0 -181 3 -179 8 3 4 48 131 101 283 l97 276 -99 281 -99 282 181
0 182 0 54 -155z"/>
<path d="M2452 2934 c-21 -15 -22 -21 -21 -177 l0 -162 60 124 c64 134 72 178
39 211 -24 24 -48 25 -78 4z"/>
<path d="M2488 2425 c-79 -169 -79 -235 -1 -235 57 0 64 24 61 203 l-3 155
-57 -123z"/>
<path d="M4322 2934 c-21 -14 -22 -22 -22 -135 l0 -119 60 0 60 0 0 115 c0
102 -2 117 -20 135 -24 24 -48 25 -78 4z"/>
</g>
</svg>
